<svg width="65" height="64" viewBox="0 0 65 64" fill="none" xmlns="http://www.w3.org/2000/svg">
<path d="M22.1302 63.9009C21.3363 63.9009 20.6416 63.2074 20.6416 62.4149V9.51085C20.6416 8.71828 21.3363 8.02478 22.1302 8.02478C22.924 8.02478 23.6187 8.71828 23.6187 9.51085V62.4149C23.6187 63.2074 22.924 63.9009 22.1302 63.9009Z" fill="#000"/>
<path d="M42.8704 63.9999C42.0765 63.9999 41.3818 63.3064 41.3818 62.5139V21.9938C41.3818 21.2012 42.0765 20.5077 42.8704 20.5077C43.6643 20.5077 44.3589 21.2012 44.3589 21.9938V62.4148C44.3589 62.8111 44.2597 63.2074 43.962 63.5046C43.6643 63.7027 43.3666 63.9999 42.8704 63.9999Z" fill="#000"/>
<path d="M63.511 63.9009C62.7171 63.9009 62.0225 63.2074 62.0225 62.4149V1.48607C62.1217 0.693498 62.7171 0 63.511 0C64.3049 0 64.9996 0.693498 64.9996 1.48607V62.4149C64.9996 63.2074 64.3049 63.9009 63.511 63.9009Z" fill="#F9BC20"/>
<path d="M1.48855 64C0.694657 64 0 63.3065 0 62.514V38.1424C0 37.3499 0.694657 36.6564 1.48855 36.6564C2.28244 36.6564 2.9771 37.3499 2.9771 38.1424V62.514C2.9771 62.9102 2.87786 63.3065 2.58015 63.5047C2.38168 63.7028 1.98473 64 1.48855 64Z" fill="#000"/>
</svg>
