<svg width="74" height="73" viewBox="0 0 74 73" fill="none" xmlns="http://www.w3.org/2000/svg">
<g clip-path="url(#clip0)">
<path d="M63.2106 54.4499H43.9204C43.4845 54.4499 43.1576 54.2317 42.9396 53.9044L33.349 37.2093C33.1311 36.8819 33.1311 36.4455 33.349 36.1181L42.9396 19.423C43.1576 19.0957 43.4845 18.8774 43.9204 18.8774H63.2106C63.6465 18.8774 63.9735 19.0957 64.1914 19.423L73.782 36.1181C74 36.4455 74 36.8819 73.782 37.2093L64.1914 53.9044C63.9735 54.2317 63.6465 54.4499 63.2106 54.4499ZM44.5744 52.2676H62.5567L71.6023 36.6637L62.5567 21.0598H44.5744L35.5287 36.6637L44.5744 52.2676Z" fill="#F9BC20"/>
<path d="M29.9694 73H10.6792C10.2433 73 9.91635 72.7817 9.69839 72.4544L0.107812 55.7593C-0.110156 55.432 -0.110156 54.9955 0.107812 54.6681L9.80737 37.9731C10.0253 37.6457 10.3523 37.4275 10.7882 37.4275H30.0784C30.5143 37.4275 30.8412 37.6457 31.0592 37.9731L40.6498 54.6681C40.8678 54.9955 40.8678 55.432 40.6498 55.7593L31.0592 72.4544C30.7323 72.7817 30.4053 73 29.9694 73ZM11.3331 70.8176H29.3155L38.3611 55.2137L29.3155 39.6099H11.3331L2.39647 55.2137L11.3331 70.8176Z" fill="#000"/>
<path d="M29.9694 35.5725H10.6792C10.2433 35.5725 9.91635 35.3543 9.69839 35.0269L0.107812 18.3318C-0.110156 18.0045 -0.110156 17.568 0.107812 17.2407L9.80737 0.54559C10.0253 0.218236 10.3523 0 10.6792 0H29.9694C30.4053 0 30.7323 0.218236 30.9502 0.54559L40.5408 17.2407C40.7588 17.568 40.7588 18.0045 40.5408 18.3318L30.9502 35.0269C30.7323 35.3543 30.4053 35.5725 29.9694 35.5725ZM11.3331 33.3901H29.3155L38.3611 17.7862L29.3155 2.18236H11.3331L2.39647 17.7862L11.3331 33.3901Z" fill="#000"/>
</g>
<defs>
<clipPath id="clip0">
<rect width="74" height="73" fill="white"/>
</clipPath>
</defs>
</svg>
