<svg width="80" height="59" viewBox="0 0 80 59" fill="none" xmlns="http://www.w3.org/2000/svg">
<g clip-path="url(#clip0)">
<path d="M14.4998 35.1C12.6998 35.1 11.2998 33.7 11.2998 31.9C11.2998 30.1 12.6998 28.7 14.4998 28.7C15.0998 28.7 15.5998 28.8 15.9998 29L16.1998 29.1L27.1998 20.9L26.9998 20.6C26.9998 20.6 26.9998 20.3 26.9998 20.2C26.9998 18.4 28.2998 17.1 30.0998 17.1C31.8998 17.1 33.2998 18.5 33.2998 20.3V20.6L43.6998 26L43.8998 25.8C44.3998 25.4 45.0998 25.1 45.7998 25.1C46.2998 25.1 46.6998 25.2 46.9998 25.4L47.1998 25.5L58.3998 15.4L58.2998 15.2C58.1998 14.9 58.0998 14.6 58.0998 14.3C58.0998 12.5 59.4998 11.1 61.2998 11.1C62.8998 11.1 64.5998 12.3 64.5998 14.2C64.5998 16 63.1998 17.4 61.3998 17.4C60.8998 17.4 60.4998 17.3 60.1998 17.1L59.9998 17L48.7998 27.1L48.8998 27.3C48.9998 27.6 49.0998 27.9 49.0998 28.2C49.0998 30 47.6998 31.4 45.8998 31.4C44.0998 31.4 42.6998 30 42.6998 28.2V27.9L32.2998 22.6L32.0998 22.8C31.5998 23.2 30.8998 23.5 30.1998 23.5C29.5998 23.5 29.0998 23.4 28.6998 23.2L28.4998 23.1L17.4998 31.3L17.6998 31.6C17.7998 31.7 17.7998 32 17.7998 32.1C17.6998 33.7 16.2998 35.1 14.4998 35.1Z" fill="#F9BC20"/>
<path d="M30.9 58.5C30.3 58.5 29.8 58 29.8 57.4C29.8 56.8 30.3 56.3 30.9 56.3H38.5V49.2H0V0H79.2V49.2H40.6V56.3H48.2C48.8 56.3 49.3 56.8 49.3 57.4C49.3 58 48.8 58.5 48.2 58.5H30.9ZM2.2 47H77V2.2H2.2V47Z" fill="#000"/>
</g>
<defs>
<clipPath id="clip0">
<rect width="79.2" height="58.5" fill="white"/>
</clipPath>
</defs>
</svg>
