<svg width="49" height="83" viewBox="0 0 49 83" fill="none" xmlns="http://www.w3.org/2000/svg">
<g clip-path="url(#clip0)">
<path d="M24.3 82.9998C10.9 82.9998 0 72.0998 0 58.6998C0 48.7998 5.9 39.9998 15.1 36.1998L15.2 36.0998L15 30.6998C15 30.2998 15.3 29.7998 15.7 29.6998C17.8 28.8998 20 28.4998 22.3 28.2998H22.4L22.5 28.1998C23.4 26.4998 23.6 24.5998 23.1 22.7998C22.6 20.7998 21.3 19.0998 19.5 17.9998C19 17.6998 18.5 17.4998 17.9 17.2998C17.4 17.0998 17.1 16.4998 17.2 15.9998C17.3 15.5998 17.7 15.2998 18.2 15.2998C18.3 15.2998 18.4 15.2998 18.5 15.3998C19.2 15.5998 19.9 15.8998 20.5 16.2998C24.5 18.6998 26.3 23.5998 24.7 28.0998L24.6 28.3998H24.9C26.8 28.4998 28.6 28.7998 30.4 29.2998C30.8 29.3998 31.1 29.7998 31.1 30.1998L31.3 35.5998H31.4C41.6 38.7998 48.4 48.0998 48.4 58.7998C48.6 72.0998 37.7 82.9998 24.3 82.9998ZM24.3 36.3998C12 36.3998 2 46.3998 2 58.6998C2 70.9998 12 80.8998 24.2 80.8998C36.5 80.8998 46.4 70.8998 46.4 58.6998C46.5 46.3998 36.6 36.3998 24.3 36.3998ZM23 30.2998C21 30.3998 19.1 30.6998 17.2 31.2998H17.1L17.3 35.2998L17.5 35.1998C19.3 34.6998 21.2 34.3998 23.2 34.2998H23.3H24.3C25.9 34.2998 27.6 34.4998 29.2 34.7998L29.5 34.8998L29.3 30.8998H29.2C27.5 30.4998 25.8 30.2998 24.1 30.2998C23.7 30.2998 23.4 30.2998 23 30.2998Z" fill="#0C0C0C"/>
<path d="M41.3002 59.6998C40.7002 59.6998 40.3002 59.1998 40.3002 58.6998C40.3002 53.5998 37.8002 48.6998 33.6002 45.6998C33.4002 45.4998 33.2002 45.2998 33.2002 44.9998C33.2002 44.6998 33.2002 44.4998 33.4002 44.1998C33.6002 43.8998 33.9002 43.7998 34.2002 43.7998C34.4002 43.7998 34.6002 43.8998 34.8002 43.9998C39.5002 47.3998 42.4002 52.8998 42.4002 58.6998C42.3002 59.1998 41.9002 59.6998 41.3002 59.6998Z" fill="#0C0C0C"/>
<path d="M19.3001 7.7001C19.0001 7.7001 18.8001 7.5001 18.6001 7.3001C18.4001 7.1001 18.3001 6.8001 18.4001 6.6001L18.9001 1.0001C18.9001 0.500098 19.4001 0.100098 19.9001 0.100098H20.0001C20.6001 0.100098 21.0001 0.600098 20.9001 1.2001L20.4001 6.8001C20.3001 7.3001 19.9001 7.7001 19.3001 7.7001Z" fill="#09068B"/>
<path d="M13.4 8.8C13 8.8 12.7 8.6 12.5 8.3L9.59999 3.5C9.39999 3 9.49999 2.4 9.99999 2.1C10.2 2 10.3 2 10.5 2C10.9 2 11.2 2.2 11.4 2.5L14.3 7.3C14.6 7.8 14.4 8.4 14 8.7C13.8 8.8 13.6 8.8 13.4 8.8Z" fill="#09068B"/>
<path d="M9.3 13.3C9.2 13.3 9 13.3 8.9 13.2L3.8 11C3.5 10.9 3.3 10.7 3.2 10.4C3.1 10.1 3.1 9.9 3.2 9.6C3.4 9.3 3.8 9 4.2 9C4.3 9 4.5 9 4.6 9.1L9.8 11.3C10.3 11.5 10.6 12.1 10.3 12.6C10.1 13 9.8 13.3 9.3 13.3Z" fill="#09068B"/>
<path d="M3.2001 20.5002C2.7001 20.5002 2.3001 20.2002 2.2001 19.7002C2.1001 19.2002 2.4001 18.6002 3.0001 18.5002L8.5001 17.2002C8.6001 17.2002 8.7001 17.2002 8.7001 17.2002C9.2001 17.2002 9.6001 17.5002 9.7001 18.0002C9.8001 18.5002 9.5001 19.1002 8.9001 19.2002L3.4001 20.5002C3.3001 20.5002 3.2001 20.5002 3.2001 20.5002Z" fill="#09068B"/>
<path d="M7.8998 28.6998C7.6998 28.6998 7.3998 28.5998 7.1998 28.3998C6.9998 28.1998 6.8998 27.9998 6.7998 27.6998C6.7998 27.3998 6.8998 27.1998 6.9998 26.9998L10.6998 22.6998C10.8998 22.4998 11.1998 22.2998 11.4998 22.2998C11.6998 22.2998 11.9998 22.3998 12.1998 22.4998C12.5998 22.8998 12.6998 23.4998 12.2998 23.8998L8.5998 28.1998C8.4998 28.5998 8.1998 28.6998 7.8998 28.6998Z" fill="#09068B"/>
<path d="M27.8002 15.4C27.3002 15.4 26.9002 15.1 26.8002 14.6C26.7002 14.3 26.8002 14.1 26.9002 13.8C27.0002 13.6 27.3002 13.4 27.5002 13.3L33.0002 12C33.1002 12 33.2002 12 33.2002 12C33.7002 12 34.1002 12.3 34.2002 12.8C34.3002 13.1 34.2002 13.3 34.1002 13.6C34.0002 13.8 33.7002 14 33.5002 14.1L28.0002 15.4C27.9002 15.4 27.8002 15.4 27.8002 15.4Z" fill="#09068B"/>
<path d="M24.7998 10.1998C24.5998 10.1998 24.2998 10.0998 24.0998 9.8998C23.6998 9.4998 23.5998 8.8998 23.9998 8.4998L27.6998 4.1998C27.8998 3.9998 28.1998 3.7998 28.4998 3.7998C28.6998 3.7998 28.9998 3.8998 29.1998 3.9998C29.5998 4.3998 29.6998 4.9998 29.2998 5.3998L25.5998 9.6998C25.3998 9.9998 25.0998 10.1998 24.7998 10.1998Z" fill="#09068B"/>
</g>
<defs>
<clipPath id="clip0">
<rect width="48.6" height="83" fill="white"/>
</clipPath>
</defs>
</svg>
