<svg width="71" height="66" viewBox="0 0 71 66" fill="none" xmlns="http://www.w3.org/2000/svg">
<g clip-path="url(#clip0)">
<path d="M22.2 42.3999H19.5V46.5999H22.2V42.3999Z" fill="#F9BC20"/>
<path d="M29.0999 37.5H26.3999V46.6H29.0999V37.5Z" fill="#F9BC20"/>
<path d="M36.0999 32.7002H33.3999V46.6002H36.0999V32.7002Z" fill="#F9BC20"/>
<path d="M43.0999 27.8999H40.3999V46.5999H43.0999V27.8999Z" fill="#F9BC20"/>
<path d="M50.0999 37.5H47.3999V46.6H50.0999V37.5Z" fill="#F9BC20"/>
<path d="M12.6998 54.1998C12.1998 54.1998 11.7998 53.7998 11.7998 53.2998V28.1998C11.7998 27.6998 12.1998 27.2998 12.6998 27.2998C13.1998 27.2998 13.5998 27.6998 13.5998 28.1998V52.3998H57.1998C57.4998 52.3998 57.6998 52.4998 57.8998 52.6998C58.0998 52.8998 58.1998 53.0998 58.1998 53.3998C58.1998 53.8998 57.7998 54.2998 57.2998 54.2998H12.6998V54.1998Z" fill="#0C0C0C"/>
<path d="M5.1 65.2C2.2 65.2 0 63 0 60.1V5.1C0 2.2 2.2 0 5.1 0H65.9C68.8 0 71 2.2 71 5.1V60.2C71 63 68.8 65.3 65.9 65.3H5.1V65.2ZM2.1 60.1C2.1 61.8 3.4 63.1 5.1 63.1H65.9C67.5 63.1 68.8 61.8 69 60.2V18.2H2.1V60.1ZM5.1 2C3.4 2 2.1 3.3 2.1 5.1V16.2H68.9V5C68.9 3.3 67.6 2 65.9 2H5.1Z" fill="#0C0C0C"/>
<path d="M10.7001 9.1002C10.7001 10.8002 8.1001 10.8002 8.1001 9.1002C8.1001 7.4002 10.7001 7.4002 10.7001 9.1002Z" fill="#0C0C0C"/>
<path d="M16.3002 9.1002C16.3002 10.8002 13.7002 10.8002 13.7002 9.1002C13.8002 7.4002 16.3002 7.4002 16.3002 9.1002Z" fill="#0C0C0C"/>
<path d="M21.9999 9.1002C21.9999 10.8002 19.3999 10.8002 19.3999 9.1002C19.4999 7.4002 21.9999 7.4002 21.9999 9.1002Z" fill="#0C0C0C"/>
</g>
<defs>
<clipPath id="clip0">
<rect width="71" height="65.2" fill="white"/>
</clipPath>
</defs>
</svg>
