<svg xmlns="http://www.w3.org/2000/svg" width="668.546" height="1342" viewBox="0 0 668.546 1342">
  <g id="Union_1" data-name="Union 1" fill="rgba(255,255,255,0)">
    <path d="M 667.0460815429688 1340.5 L 194.5457305908203 1340.5 L 192.4037322998047 1340.5 C 190.1016235351562 1336.5693359375 178.7904968261719 1317.023193359375 162.9302368164062 1285.739624023438 C 152.5130767822266 1265.1923828125 142.2008972167969 1243.67724609375 132.2802429199219 1221.7919921875 C 119.8799057006836 1194.436889648438 108.0597381591797 1166.422973632812 97.1480712890625 1138.5283203125 C 69.37657165527344 1067.533813476562 47.24973678588867 996.8749389648438 31.38207054138184 928.5142822265625 C 26.79607200622559 908.757080078125 22.67973709106445 888.9317626953125 19.1475715637207 869.5887451171875 C 15.4295711517334 849.2296142578125 12.25640487670898 828.8442993164062 9.716071128845215 808.9990844726562 C 7.051904678344727 788.1881103515625 5.010071277618408 767.3950805664062 3.64723801612854 747.19775390625 C 2.222404718399048 726.0849609375 1.500071287155151 705.03662109375 1.500071287155151 684.6372680664062 C 1.500071287155151 664.2371215820312 2.22257137298584 643.0847778320312 3.647404670715332 621.7677612304688 C 5.010404586791992 601.374755859375 7.052571296691895 580.2892456054688 9.716904640197754 559.096923828125 C 12.25757122039795 538.887939453125 15.43123817443848 518.048583984375 19.14957046508789 497.1577758789062 C 22.68223762512207 477.3094482421875 26.79923820495605 456.8954467773438 31.38573837280273 436.4827575683594 C 47.2557373046875 365.8539428710938 69.38573455810547 292.0349426269531 97.16140747070312 217.0764465332031 C 108.0747375488281 187.6244354248047 119.8964080810547 157.9237670898438 132.2984008789062 128.7994384765625 C 142.2205657958984 105.4986038208008 152.5340728759766 82.51243591308594 162.9524078369141 60.47943878173828 C 178.834228515625 26.892578125 190.1553344726562 5.722422122955322 192.4384002685547 1.49993896484375 L 357.5457458496094 1.49993896484375 L 667.0460815429688 1.49993896484375 L 667.0460815429688 164.4996032714844 L 277.6364135742188 164.4996032714844 L 276.6405639648438 164.4996032714844 L 276.2540588378906 165.4174346923828 C 221.0970764160156 296.3899536132812 155.3475646972656 492.7859497070312 155.3475646972656 684.6372680664062 C 155.3475646972656 872.2821044921875 218.4887390136719 1055.741577148438 271.4575805664062 1176.602661132812 L 271.85107421875 1177.50048828125 L 272.8313903808594 1177.50048828125 L 667.0460815429688 1177.50048828125 L 667.0460815429688 1340.5 Z" stroke="none"/>
    <path d="M 665.5460815429688 1339 L 665.5460815429688 1179.00048828125 L 270.8707275390625 1179.00048828125 L 270.083740234375 1177.20458984375 C 217.0572357177734 1056.21240234375 153.8475646972656 872.541748046875 153.8475646972656 684.6372680664062 C 153.8475646972656 492.5356140136719 219.6609039306641 295.9352722167969 274.87158203125 164.8352661132812 L 275.6445617675781 162.9996032714844 L 665.5460815429688 162.9996032714844 L 665.5460815429688 2.99993896484375 L 193.3337554931641 2.99993896484375 C 190.3045806884766 8.63465404510498 179.3484191894531 29.31213188171387 164.2879028320312 61.16410446166992 C 153.8772430419922 83.18227386474609 143.5715637207031 106.1527709960938 133.6570739746094 129.4374389648438 C 121.2654037475586 158.5397796630859 109.4535675048828 188.2177734375 98.54956817626953 217.6469421386719 C 70.80173492431641 292.5367736816406 48.69473648071289 366.2847595214844 32.84240341186523 436.8421020507812 C 28.26173782348633 457.2305908203125 24.15023803710938 477.6199340820312 20.62223815917969 497.4439392089844 C 16.90907096862793 518.3072509765625 13.74007129669189 539.1185913085938 11.20307159423828 559.2999267578125 C 8.543071746826172 580.4607543945312 6.504238128662109 601.5142822265625 5.143404483795166 621.8757934570312 C 3.721237897872925 643.1567993164062 3.000071287155151 664.2727661132812 3.000071287155151 684.6372680664062 C 3.000071287155151 704.9999389648438 3.721071243286133 726.0112915039062 5.143071174621582 747.0872802734375 C 6.503571510314941 767.2517700195312 8.541904449462891 788.0115966796875 11.2014045715332 808.7899169921875 C 13.73773765563965 828.60595703125 16.90607070922852 848.9617919921875 20.61807060241699 869.291748046875 C 24.14523887634277 888.6089477539062 28.25557136535645 908.4082641601562 32.83490371704102 928.1397705078125 C 48.68257141113281 996.4227905273438 70.78324127197266 1067.0048828125 98.5230712890625 1137.92578125 C 109.4239044189453 1165.79541015625 121.2324066162109 1193.784545898438 133.6205749511719 1221.115966796875 C 143.5324096679688 1242.983642578125 153.8354034423828 1264.481567382812 164.243408203125 1285.012573242188 C 179.2718200683594 1314.658081054688 190.2126007080078 1333.755615234375 193.2649230957031 1339 L 665.5460815429688 1339 M 668.5460815429688 1342 L 191.5460662841797 1342 C 191.5460662841797 1342 7.12890614522621e-05 1020.136596679688 7.12890614522621e-05 684.6372680664062 C 7.12890614522621e-05 349.1369323730469 191.5460662841797 -6.103515625e-05 191.5460662841797 -6.103515625e-05 L 668.5460815429688 -6.103515625e-05 L 668.5460815429688 165.9996032714844 L 277.6364135742188 165.9996032714844 C 221.6722412109375 298.8889465332031 156.8475646972656 493.9729309082031 156.8475646972656 684.6372680664062 C 156.8475646972656 869.8744506835938 218.0284118652344 1050.954467773438 272.8313903808594 1176.00048828125 L 668.5460815429688 1176.00048828125 L 668.5460815429688 1342 Z" stroke="none" fill="#fff"/>
  </g>
</svg>
