<svg width="18" height="18" viewBox="0 0 18 18" fill="none" xmlns="http://www.w3.org/2000/svg">
<g clip-path="url(#clip0_268_318)">
<path fill-rule="evenodd" clip-rule="evenodd" d="M15.2567 2.7225C13.5823 1.07903 11.3556 0.17356 8.98312 0.172607C4.09486 0.172607 0.116323 4.07282 0.114415 8.86671C0.113731 10.3992 0.522114 11.8949 1.29824 13.2135L0.0400391 17.719L4.74146 16.51C6.03681 17.2027 7.49528 17.5678 8.97959 17.5683H8.98319C8.98348 17.5683 8.98291 17.5683 8.98319 17.5683C13.871 17.5683 17.8498 13.6677 17.8519 8.87366C17.8527 6.55039 16.9311 4.3659 15.2567 2.7225ZM8.98316 16.0999H8.98017C7.65753 16.0994 6.3602 15.7509 5.22843 15.0925L4.95929 14.9359L2.1694 15.6534L2.9141 12.9866L2.73881 12.7132C2.00096 11.5626 1.61126 10.2327 1.61183 8.86721C1.61342 4.88271 4.92023 1.64109 8.98615 1.64109C10.955 1.64169 12.8058 2.39441 14.1975 3.76039C15.5892 5.12638 16.3552 6.94209 16.3544 8.87306C16.3528 12.8579 13.046 16.0999 8.98316 16.0999Z" fill="#168576"/>
<path fill-rule="evenodd" clip-rule="evenodd" d="M13.0262 10.6874C12.8047 10.5786 11.7152 10.0531 11.512 9.98058C11.3089 9.90809 11.1612 9.87184 11.0135 10.0893C10.8658 10.3068 10.4411 10.7962 10.3118 10.9412C10.1826 11.0861 10.0533 11.1043 9.83171 10.9955C9.61013 10.8868 8.8961 10.6574 8.04971 9.91723C7.39091 9.34112 6.9462 8.62974 6.81689 8.41218C6.68765 8.19474 6.80313 8.07717 6.91409 7.96882C7.01377 7.87144 7.1357 7.71509 7.24651 7.58821C7.35728 7.4614 7.39422 7.37069 7.46809 7.22581C7.54196 7.08078 7.50506 6.9539 7.44962 6.8452C7.39422 6.73645 6.95106 5.66711 6.76641 5.23204C6.58649 4.80848 6.40382 4.86587 6.26778 4.85912C6.13872 4.85281 5.99079 4.8515 5.84309 4.8515C5.69538 4.8515 5.45526 4.90589 5.25218 5.12334C5.04907 5.34085 4.47656 5.86649 4.47656 6.93572C4.47656 8.0051 5.27061 9.03816 5.38142 9.18311C5.49219 9.32817 6.944 11.5225 9.16693 12.4635C9.69563 12.6874 10.1084 12.8211 10.4302 12.9211C10.9611 13.0865 11.4441 13.0632 11.826 13.0072C12.2517 12.9449 13.137 12.4817 13.3217 11.9743C13.5064 11.4667 13.5064 11.0317 13.4509 10.9411C13.3956 10.8505 13.2478 10.7962 13.0262 10.6874Z" fill="#168576"/>
</g>
<defs>
<clipPath id="clip0_268_318">
<rect width="18" height="18" fill="white"/>
</clipPath>
</defs>
</svg>
