<svg width="200" height="78" viewBox="0 0 200 78" fill="none" xmlns="http://www.w3.org/2000/svg">
<path d="M100.86 43.4016C100.86 38.7348 104.699 34.9491 109.433 34.9491C114.167 34.9491 118.006 38.7319 118.006 43.4016C118.006 48.0684 114.167 51.8541 109.433 51.8541C104.696 51.8541 100.86 48.0684 100.86 43.4016ZM115.057 43.4016C115.057 40.2943 112.537 37.7744 109.43 37.7744C106.323 37.7744 103.803 40.2943 103.803 43.4016C103.803 46.5089 106.323 49.0288 109.43 49.0288C112.54 49.0288 115.057 46.5089 115.057 43.4016Z" fill="#003D4E"/>
<path d="M128.453 45.9393C130.412 45.0523 131.769 43.0934 131.769 40.8055C131.769 37.7041 129.237 35.1901 126.095 35.1901H120.685C119.871 35.1901 119.21 35.8509 119.21 36.6644V50.098C119.21 50.891 119.821 51.5723 120.611 51.6105C121.457 51.6516 122.156 50.9761 122.156 50.1391V38.0183H126.092C127.604 38.0183 128.82 39.2695 128.82 40.8143C128.82 42.3709 127.601 43.622 126.092 43.622H125.263C124.482 43.622 123.851 44.2535 123.851 45.0347C123.851 45.8159 124.482 46.4474 125.263 46.4474H125.299L128.106 50.9849C128.535 51.6781 129.443 51.8895 130.133 51.4637C130.826 51.0349 131.038 50.1273 130.612 49.4372L128.453 45.9393Z" fill="#003D4E"/>
<path d="M148.233 44.2445V47.3224C148.233 48.0831 148.084 48.6352 147.549 49.1933C145.937 50.882 143.672 51.8541 141.305 51.8541C136.703 51.8541 132.973 48.0714 132.973 43.4016C132.973 38.7348 136.703 34.9491 141.305 34.9491C143.628 34.9491 145.772 35.886 147.329 37.4895C147.584 37.7509 147.74 38.1092 147.74 38.5057C147.74 39.3046 147.094 39.9507 146.295 39.9507C145.881 39.9507 145.508 39.7774 145.247 39.4984C144.213 38.4059 142.83 37.7744 141.305 37.7744C138.33 37.7744 135.919 40.2943 135.919 43.4016C135.919 46.5089 138.33 49.0288 141.305 49.0288C142.859 49.0288 144.269 48.3974 145.285 47.3782V45.5955H142.18C141.399 45.5955 140.768 44.9641 140.768 44.1828C140.768 43.4016 141.399 42.7702 142.18 42.7702H146.756C147.576 42.7702 148.233 43.431 148.233 44.2445Z" fill="#003D4E"/>
<path d="M163.934 49.5781L157.869 35.9125C157.623 35.3574 157.079 35.0285 156.51 35.0314C155.94 35.0285 155.396 35.3574 155.153 35.9125L149.088 49.5781C148.759 50.3211 149.1 51.1934 149.843 51.5194C150.589 51.8454 151.458 51.5076 151.784 50.7646L156.51 39.9948L161.235 50.7646C161.561 51.5106 162.433 51.8483 163.176 51.5194C163.922 51.1904 164.263 50.3211 163.934 49.5781Z" fill="#003D4E"/>
<path d="M179.749 36.6702V50.1448C179.749 50.9584 179.089 51.6192 178.275 51.6192C177.696 51.6192 177.197 51.2873 176.956 50.8027L167.723 40.3531V50.1419C167.723 50.9554 167.062 51.6163 166.248 51.6163C165.435 51.6163 164.774 50.9554 164.774 50.1419V36.6672C164.774 35.8537 165.435 35.1929 166.248 35.1929C166.598 35.1929 166.918 35.3162 167.17 35.5189L167.179 35.5101L167.235 35.5747C167.314 35.6481 167.388 35.7303 167.449 35.8184L176.798 46.3709V36.6731C176.798 35.8596 177.459 35.1987 178.272 35.1987C179.092 35.1958 179.749 35.8566 179.749 36.6702Z" fill="#003D4E"/>
<path d="M181.2 50.1391V36.6644C181.2 35.8509 181.861 35.1901 182.675 35.1901C183.488 35.1901 184.149 35.8509 184.149 36.6644V50.1391C184.149 50.9526 183.488 51.6134 182.675 51.6134C181.858 51.6105 181.2 50.9526 181.2 50.1391Z" fill="#003D4E"/>
<path d="M185.113 43.4016C185.113 38.7407 188.904 34.9491 193.565 34.9491C195.888 34.9491 198.032 35.886 199.589 37.4895C199.844 37.7509 200 38.1092 200 38.5057C200 39.3046 199.354 39.9507 198.555 39.9507C198.141 39.9507 197.768 39.7774 197.506 39.4984C196.473 38.4059 195.089 37.7744 193.565 37.7744C190.522 37.7744 188.058 40.2855 188.058 43.4016C188.058 46.5177 190.522 49.0288 193.565 49.0288C195.089 49.0288 196.473 48.3944 197.506 47.3048C197.771 47.0258 198.144 46.8525 198.555 46.8525C199.354 46.8525 200 47.4986 200 48.2975C200 48.691 199.841 49.0494 199.589 49.3107C198.032 50.9172 195.888 51.8512 193.565 51.8512C188.904 51.8541 185.113 48.0625 185.113 43.4016Z" fill="#003D4E"/>
<path d="M100.699 60.8618C100.699 57.2024 103.674 54.2272 107.334 54.2272C109.158 54.2272 110.84 54.9615 112.062 56.2214C112.262 56.427 112.385 56.7089 112.385 57.0173C112.385 57.6429 111.877 58.151 111.252 58.151C110.929 58.151 110.635 58.0159 110.426 57.7956C109.616 56.938 108.529 56.4417 107.334 56.4417C104.946 56.4417 103.014 58.4124 103.014 60.8589C103.014 63.3053 104.946 65.276 107.334 65.276C108.532 65.276 109.616 64.7797 110.426 63.9221C110.632 63.7047 110.926 63.5667 111.252 63.5667C111.877 63.5667 112.385 64.0748 112.385 64.7004C112.385 65.0087 112.262 65.2907 112.062 65.4963C110.84 66.7562 109.158 67.4905 107.334 67.4905C103.674 67.4963 100.699 64.5212 100.699 60.8618Z" fill="#003D4E"/>
<path d="M125.091 55.5782V66.1541C125.091 66.7914 124.574 67.3113 123.933 67.3113C123.296 67.3113 122.776 66.7944 122.776 66.1541V62.2127H115.463V66.1512C115.463 66.7885 114.946 67.3083 114.306 67.3083C113.669 67.3083 113.149 66.7914 113.149 66.1512V55.5752C113.149 54.9379 113.666 54.4181 114.306 54.4181C114.943 54.4181 115.463 54.935 115.463 55.5752V59.9014H122.779V55.5811C122.779 54.9438 123.296 54.424 123.936 54.424C124.574 54.421 125.091 54.9379 125.091 55.5782Z" fill="#003D4E"/>
<path d="M135.704 66.1982C135.704 66.812 135.208 67.3083 134.594 67.3083H127.381C126.744 67.3083 126.224 66.7914 126.224 66.1512V55.5752C126.224 54.9379 126.741 54.4181 127.381 54.4181H134.594C135.208 54.4181 135.704 54.9144 135.704 55.5283C135.704 56.1421 135.208 56.6384 134.594 56.6384H128.538V60.1363H133.458C134.071 60.1363 134.568 60.6327 134.568 61.2465C134.568 61.8603 134.071 62.3566 133.458 62.3566H128.538V65.0968H134.594C135.208 65.088 135.704 65.5843 135.704 66.1982Z" fill="#003D4E"/>
<path d="M149.743 55.5752V66.1512C149.743 66.7885 149.226 67.3083 148.586 67.3083C147.949 67.3083 147.429 66.7914 147.429 66.1512V58.6913L144.166 62.665C143.943 62.9382 143.617 63.0762 143.291 63.0732C142.965 63.0762 142.639 62.9382 142.415 62.665L139.152 58.6913V66.1512C139.152 66.7885 138.636 67.3083 137.995 67.3083C137.358 67.3083 136.838 66.7914 136.838 66.1512V55.5752C136.838 54.9379 137.355 54.4181 137.995 54.4181C138.389 54.4181 138.735 54.6149 138.944 54.9115L143.291 60.2039L147.637 54.9115C147.846 54.6119 148.192 54.4181 148.586 54.4181C149.226 54.4181 149.743 54.935 149.743 55.5752Z" fill="#003D4E"/>
<path d="M150.888 66.1512V55.5752C150.888 54.9379 151.405 54.4181 152.046 54.4181C152.683 54.4181 153.203 54.935 153.203 55.5752V66.1512C153.203 66.7885 152.686 67.3083 152.046 67.3083C151.405 67.3054 150.888 66.7885 150.888 66.1512Z" fill="#003D4E"/>
<path d="M153.958 60.8618C153.958 57.2024 156.933 54.2272 160.592 54.2272C162.416 54.2272 164.099 54.9615 165.321 56.2214C165.52 56.427 165.644 56.7089 165.644 57.0173C165.644 57.6429 165.136 58.151 164.51 58.151C164.187 58.151 163.893 58.0159 163.685 57.7956C162.874 56.938 161.787 56.4417 160.592 56.4417C158.204 56.4417 156.272 58.4124 156.272 60.8589C156.272 63.3053 158.204 65.276 160.592 65.276C161.79 65.276 162.874 64.7797 163.685 63.9221C163.89 63.7047 164.184 63.5667 164.51 63.5667C165.136 63.5667 165.644 64.0748 165.644 64.7004C165.644 65.0087 165.52 65.2907 165.321 65.4963C164.099 66.7562 162.416 67.4905 160.592 67.4905C156.933 67.4963 153.958 64.5212 153.958 60.8618Z" fill="#003D4E"/>
<path d="M178.352 65.7106L173.591 54.9849C173.397 54.5502 172.971 54.2918 172.525 54.2947C172.078 54.2918 171.652 54.5502 171.459 54.9849L166.698 65.7106C166.439 66.295 166.707 66.9764 167.291 67.2349C167.875 67.4904 168.56 67.2261 168.815 66.6416L172.525 58.1891L176.234 66.6416C176.49 67.2261 177.174 67.4904 177.758 67.2349C178.343 66.9764 178.61 66.2921 178.352 65.7106Z" fill="#003D4E"/>
<path d="M189.06 66.1982C189.06 66.812 188.564 67.3083 187.95 67.3083H180.17C179.533 67.3083 179.013 66.7914 179.013 66.1512V55.5752C179.013 54.9379 179.53 54.4181 180.17 54.4181C180.807 54.4181 181.327 54.935 181.327 55.5752V65.0909H187.95C188.564 65.088 189.06 65.5843 189.06 66.1982Z" fill="#003D4E"/>
<path d="M190.202 66.2276C189.858 66.0367 189.626 65.6696 189.626 65.2496C189.626 64.4185 190.507 63.8722 191.25 64.2511C192.352 64.8091 193.594 65.279 194.86 65.279C195.77 65.279 197.706 65.0323 197.694 63.7048C197.685 62.7004 196.607 62.5065 194.786 62.2099C192.816 61.8868 189.791 61.4316 189.797 58.3566C189.802 55.3874 192.607 54.2302 194.919 54.2302C196.499 54.2302 198.023 54.7706 199.28 55.4402C199.629 55.6282 199.87 55.9983 199.87 56.4212C199.87 57.035 199.371 57.5343 198.757 57.5343C198.566 57.5343 198.384 57.4873 198.229 57.3992C197.23 56.8588 196.096 56.4447 194.804 56.4447C192.872 56.4447 192.102 57.3728 192.108 58.2568C192.114 59.3082 193.192 59.455 194.786 59.7429C197.195 60.1775 199.999 60.7649 199.999 63.6284C199.999 66.7563 196.663 67.4935 194.786 67.4935C193.292 67.4964 191.629 67.0177 190.202 66.2276Z" fill="#003D4E"/>
<path d="M165.72 71.7374C165.746 73.2382 164.551 74.4658 163.041 74.4922L161.15 74.5245L161.182 76.2985C161.188 76.6891 160.877 77.0121 160.486 77.018C160.095 77.0239 159.772 76.7126 159.766 76.322L159.655 69.8519C159.649 69.4613 159.96 69.1382 160.351 69.1323L162.95 69.0883C164.457 69.0618 165.693 70.2484 165.72 71.7374ZM164.304 71.7638C164.292 71.0208 163.696 70.4304 162.971 70.4451L161.079 70.4774L161.126 73.1677L163.018 73.1354C163.743 73.1236 164.316 72.5127 164.304 71.7638Z" fill="#003D4E"/>
<path d="M168.534 76.6037L166.26 72.1454C166.087 71.8018 166.222 71.3848 166.566 71.2085C166.91 71.0353 167.327 71.1704 167.503 71.514L169.127 74.7006L170.639 71.4582C170.801 71.1087 171.215 70.9589 171.565 71.1204C171.914 71.282 172.064 71.6961 171.902 72.0456L169.797 76.5508C169.735 76.7006 169.623 76.8298 169.468 76.9062C169.127 77.0824 168.707 76.9473 168.534 76.6037Z" fill="#003D4E"/>
<path d="M176.336 75.4555C176.745 75.3468 177.153 75.6552 177.162 76.0781C177.168 76.3777 176.971 76.6332 176.698 76.7184C175.896 76.9651 175.077 76.9416 174.454 76.5686C173.928 76.2514 173.582 75.7022 173.567 74.9239L173.523 72.407L172.859 72.4187C172.498 72.4246 172.198 72.1368 172.192 71.7755C172.187 71.4143 172.474 71.1147 172.836 71.1088L173.499 71.0971L173.482 70.0398C173.476 69.655 173.781 69.3379 174.166 69.332C174.551 69.3261 174.868 69.6316 174.874 70.0163L174.892 71.0736L176.055 71.053C176.416 71.0472 176.715 71.335 176.721 71.6962C176.727 72.0575 176.439 72.357 176.078 72.3629L174.915 72.3835L174.956 74.7418C174.962 75.0708 175.035 75.2999 175.253 75.4261C175.514 75.5789 175.905 75.57 176.336 75.4555Z" fill="#003D4E"/>
<path d="M177.397 76.0752C177.388 75.6199 177.747 75.244 178.196 75.2381C178.645 75.2293 179.015 75.5935 179.021 76.0487C179.03 76.504 178.672 76.8799 178.222 76.8858C177.773 76.8916 177.403 76.5304 177.397 76.0752Z" fill="#003D4E"/>
<path d="M187.368 75.8726C187.374 76.2485 187.078 76.5569 186.702 76.5628L181.941 76.645C181.55 76.6509 181.227 76.3395 181.221 75.9489L181.11 69.4789C181.104 69.0882 181.415 68.7652 181.806 68.7593C182.196 68.7534 182.519 69.0647 182.525 69.4554L182.628 75.2764L186.681 75.2059C187.054 75.2 187.362 75.4996 187.368 75.8726Z" fill="#003D4E"/>
<path d="M190.511 75.2088C190.919 75.1001 191.327 75.4085 191.336 75.8314C191.342 76.131 191.145 76.3865 190.872 76.4716C190.07 76.7183 189.251 76.6948 188.628 76.3219C188.102 76.0047 187.756 75.4555 187.741 74.6772L187.697 72.1602L187.033 72.172C186.672 72.1778 186.372 71.89 186.367 71.5288C186.361 71.1675 186.648 70.868 187.01 70.8621L187.673 70.8503L187.656 69.793C187.65 69.4083 187.955 69.0911 188.34 69.0852C188.725 69.0794 189.042 69.3848 189.048 69.7695L189.066 70.8268L190.229 70.8063C190.59 70.8004 190.889 71.0882 190.895 71.4495C190.901 71.8107 190.613 72.1103 190.252 72.1162L189.089 72.1367L189.13 74.4951C189.136 74.824 189.209 75.0531 189.427 75.1794C189.688 75.3321 190.079 75.3233 190.511 75.2088Z" fill="#003D4E"/>
<path d="M197.677 68.9471L197.794 75.6727C197.8 76.0575 197.495 76.3747 197.11 76.3806C196.725 76.3864 196.408 76.081 196.402 75.6962V75.6874C195.924 76.2043 195.269 76.5274 194.537 76.5421C193.028 76.5685 191.788 75.2528 191.759 73.6022C191.73 71.9399 192.922 70.583 194.432 70.5566C195.16 70.5448 195.827 70.8444 196.326 71.3466L196.285 68.9706C196.279 68.5859 196.584 68.2687 196.969 68.2628C197.354 68.257 197.671 68.5624 197.677 68.9471ZM196.399 73.52C196.382 72.586 195.645 71.8488 194.746 71.8635C193.847 71.8782 193.136 72.6418 193.151 73.5758C193.169 74.5038 193.906 75.241 194.805 75.2263C195.706 75.2116 196.417 74.448 196.399 73.52Z" fill="#003D4E"/>
<path d="M198.376 75.711C198.367 75.2558 198.725 74.8799 199.175 74.874C199.624 74.8652 199.994 75.2294 200 75.6846C200.009 76.1398 199.65 76.5157 199.201 76.5216C198.755 76.5275 198.384 76.1663 198.376 75.711Z" fill="#003D4E"/>
<path d="M101.052 32.7024C100.843 32.5849 100.699 32.3617 100.699 32.1033C100.699 31.5952 101.24 31.2604 101.695 31.4924C102.367 31.8331 103.131 32.1209 103.903 32.1209C104.461 32.1209 105.645 31.9711 105.636 31.1576C105.63 30.5438 104.97 30.4233 103.856 30.2413C102.649 30.0445 100.799 29.7655 100.802 27.8829C100.805 26.0649 102.523 25.3571 103.936 25.3571C104.902 25.3571 105.836 25.689 106.605 26.0972C106.82 26.2118 106.967 26.4379 106.967 26.6993C106.967 27.0752 106.661 27.3807 106.285 27.3807C106.168 27.3807 106.059 27.3513 105.962 27.2984C105.351 26.9695 104.658 26.714 103.868 26.714C102.685 26.714 102.215 27.2837 102.218 27.8241C102.221 28.4673 102.881 28.5554 103.856 28.7346C105.331 29.0019 107.046 29.3602 107.046 31.1135C107.046 33.0284 105.005 33.4807 103.856 33.4807C102.94 33.4807 101.924 33.187 101.052 32.7024Z" fill="#003D4E"/>
<path d="M113.654 30.4821C113.654 30.5174 113.654 30.5555 113.651 30.5908C113.645 30.9667 113.337 31.2663 112.958 31.2663H109.369C109.601 31.8889 110.156 32.1709 110.972 32.1709C111.383 32.1709 111.871 32.0827 112.347 31.9212C112.411 31.8977 112.482 31.886 112.555 31.886C112.917 31.886 113.21 32.1797 113.21 32.5409C113.21 32.8258 113.025 33.0696 112.77 33.1577C112.159 33.3691 111.542 33.4807 110.975 33.4807C109.069 33.4807 107.856 32.3999 107.853 30.485C107.85 28.8315 109.148 27.4952 110.752 27.4952C112.356 27.4952 113.654 28.8315 113.654 30.4821ZM109.313 29.9916H112.197C112.009 29.3044 111.436 28.8081 110.755 28.8081C110.074 28.8081 109.501 29.3044 109.313 29.9916Z" fill="#003D4E"/>
<path d="M117.657 27.4952C119.037 27.4952 120.151 28.5995 120.151 29.9623V32.6672C120.151 33.0519 119.839 33.3632 119.454 33.3632C119.07 33.3632 118.758 33.0519 118.758 32.6672V30.3118C118.758 29.4806 118.112 28.8081 117.308 28.8081C116.503 28.8081 115.857 29.4806 115.857 30.3118V32.6701C115.857 33.0549 115.545 33.3662 115.161 33.3662C114.776 33.3662 114.465 33.0549 114.465 32.6701V28.3088C114.465 27.924 114.776 27.6127 115.161 27.6127C115.528 27.6127 115.827 27.8947 115.854 28.253C116.309 27.786 116.949 27.4952 117.657 27.4952Z" fill="#003D4E"/>
<path d="M124.811 32.0768C125.222 31.977 125.624 32.2912 125.624 32.7141C125.624 33.0137 125.425 33.2663 125.149 33.3456C124.341 33.5776 123.524 33.5394 122.908 33.1547C122.385 32.8287 122.05 32.2736 122.05 31.4953V28.9783H121.386C121.025 28.9783 120.731 28.6846 120.731 28.3234C120.731 27.9621 121.025 27.6685 121.386 27.6685H122.05V26.6112C122.05 26.2264 122.361 25.9151 122.746 25.9151C123.131 25.9151 123.442 26.2264 123.442 26.6112V27.6685H124.605C124.967 27.6685 125.26 27.9621 125.26 28.3234C125.26 28.6846 124.967 28.9783 124.605 28.9783H123.442V31.3367C123.442 31.6656 123.513 31.8977 123.727 32.0269C123.986 32.1855 124.376 32.1825 124.811 32.0768Z" fill="#003D4E"/>
<path d="M126.206 26.0913C126.206 25.6361 126.57 25.269 127.017 25.269C127.463 25.269 127.827 25.639 127.827 26.0913C127.827 26.5436 127.463 26.9137 127.017 26.9137C126.57 26.9137 126.206 26.5466 126.206 26.0913ZM126.321 32.6671V28.3058C126.321 27.921 126.632 27.6097 127.017 27.6097C127.401 27.6097 127.713 27.921 127.713 28.3058V32.6671C127.713 33.0519 127.401 33.3632 127.017 33.3632C126.632 33.3632 126.321 33.0519 126.321 32.6671Z" fill="#003D4E"/>
<path d="M132.256 28.2059C132.256 28.5642 131.995 28.8579 131.651 28.9108C130.867 29.0312 130.151 29.6215 130.151 30.7757V32.6671C130.151 33.0519 129.839 33.3632 129.455 33.3632C129.07 33.3632 128.759 33.0519 128.759 32.6671V28.3058C128.759 27.921 129.07 27.6097 129.455 27.6097C129.792 27.6097 130.074 27.8506 130.139 28.1707C130.55 27.7624 131.061 27.4922 131.546 27.4922C131.936 27.4922 132.256 27.8124 132.256 28.2059Z" fill="#003D4E"/>
<path d="M48.3685 63.7576C47.5315 64.0983 46.6739 64.4008 45.7957 64.6593L45.7898 64.6622C43.9836 65.1938 42.104 65.5374 40.1627 65.6813C40.1539 65.6813 40.1421 65.6813 40.1304 65.6843C39.8514 65.7048 39.5723 65.7195 39.2904 65.7313C39.2228 65.7342 39.1524 65.7371 39.0819 65.7401C38.7852 65.7489 38.4886 65.7548 38.192 65.7548C23.3369 65.7548 11.2544 53.6693 11.2544 38.8142C11.2544 23.9591 23.3399 11.8766 38.192 11.8766C48.6093 11.8766 57.6639 17.8209 62.1427 26.4967C62.2367 26.6788 62.3278 26.8609 62.4188 27.0459C62.5099 27.228 62.595 27.413 62.6802 27.601C64.2515 31.0166 65.1296 34.817 65.1296 38.8171C65.1296 38.8436 65.1296 38.8729 65.1296 38.8994C65.1296 39.1226 65.1267 39.3458 65.1208 39.569C65.1208 39.5837 65.1208 39.5984 65.1208 39.613C65.1208 39.6777 65.1149 39.7423 65.112 39.8069C65.1061 39.9772 65.1002 40.1476 65.0885 40.3209C65.0885 40.3326 65.0885 40.3443 65.0885 40.3561C65.0856 40.4354 65.0767 40.5118 65.0738 40.5881C65.0621 40.7496 65.0533 40.9112 65.0386 41.0698C65.0327 41.1608 65.0239 41.2489 65.0151 41.337C65.0004 41.5015 64.9828 41.666 64.9651 41.8275C64.9563 41.9097 64.9475 41.992 64.9358 42.0742C64.9152 42.2534 64.8888 42.4325 64.8653 42.6117C64.8565 42.6733 64.8477 42.738 64.8389 42.7996C64.8036 43.0375 64.7654 43.2754 64.7243 43.5104C64.7243 43.5133 64.7243 43.5162 64.7243 43.5162C64.6362 44.0214 64.5305 44.5207 64.413 45.017C64.4101 45.0288 64.4071 45.0405 64.4042 45.0523C64.3484 45.2843 64.2896 45.5134 64.2309 45.7425C64.225 45.7659 64.2192 45.7865 64.2133 45.81C64.1516 46.0332 64.0899 46.2593 64.0224 46.4796C64.0165 46.4943 64.0136 46.509 64.0106 46.5237C63.573 47.9775 63.0179 49.3813 62.3542 50.7235C61.5818 52.286 60.6596 53.7632 59.6111 55.1377C60.7536 58.9734 63.6024 62.0748 67.2736 63.5638C68.1517 62.5359 68.9741 61.461 69.7406 60.342V60.339C71.4411 57.8573 72.8567 55.1642 73.9375 52.3124C73.9434 52.2948 73.9522 52.2771 73.9581 52.2595C74.0344 52.0539 74.1108 51.8484 74.1842 51.6428C74.193 51.6134 74.2048 51.584 74.2165 51.5547C74.428 50.9585 74.6247 50.3534 74.8068 49.7426C74.8303 49.6662 74.8538 49.5869 74.8773 49.5105C74.9272 49.3431 74.9742 49.1728 75.0212 49.0025C75.0477 48.9055 75.0741 48.8057 75.1005 48.7088C75.1446 48.5472 75.1886 48.3857 75.2297 48.2212C75.262 48.0891 75.2944 47.9598 75.3267 47.8277C75.3854 47.5869 75.4412 47.346 75.4941 47.1052C75.5264 46.9672 75.5557 46.8291 75.5851 46.6911C75.6145 46.556 75.6409 46.4209 75.6674 46.2858C75.6967 46.1331 75.7261 45.9803 75.7555 45.8276C75.779 45.7043 75.8025 45.5839 75.823 45.4605C75.87 45.1991 75.9141 44.9377 75.9522 44.6763C75.9669 44.5882 75.9787 44.5001 75.9904 44.412C76.0198 44.2123 76.0492 44.0155 76.0756 43.8158C76.0903 43.7071 76.105 43.5985 76.1167 43.4869C76.1402 43.296 76.1608 43.1051 76.1813 42.9142C76.1901 42.8143 76.2019 42.7174 76.2136 42.6205C76.2401 42.3385 76.2665 42.0537 76.29 41.7717C76.2929 41.7306 76.2959 41.6895 76.2988 41.6484C76.3164 41.3958 76.334 41.1432 76.3458 40.8906C76.3517 40.7966 76.3546 40.7027 76.3605 40.6116C76.3693 40.4002 76.3781 40.1858 76.384 39.9743C76.3869 39.8833 76.3898 39.7951 76.3928 39.7041C76.3987 39.4515 76.4016 39.1989 76.4016 38.9464C76.4016 38.9023 76.4045 38.8612 76.4045 38.8171C76.4045 38.6439 76.3987 38.4735 76.3987 38.3032C76.3957 38.0858 76.3928 37.8714 76.3869 37.6541C76.2635 33.5218 75.4794 29.5511 74.1372 25.8447C74.0609 25.6332 73.9816 25.4217 73.9023 25.2132C73.823 25.0018 73.7407 24.7932 73.6556 24.5847C67.999 10.5491 54.2394 0.613403 38.2037 0.613403C17.1371 0.613403 0 17.7534 0 38.8171C0 59.8838 17.14 77.0238 38.2037 77.0238C38.5209 77.0238 38.841 77.0209 39.1553 77.0121C39.264 77.0091 39.3726 77.0033 39.4842 77.0003C39.6898 76.9944 39.8983 76.9856 40.1039 76.9768C40.2361 76.971 40.3653 76.9621 40.4945 76.9533C40.6766 76.9445 40.8617 76.9328 41.0438 76.9181C41.1847 76.9063 41.3257 76.8946 41.4637 76.8828C41.6341 76.8682 41.8074 76.8535 41.9777 76.8359C42.1246 76.8212 42.2685 76.8065 42.4153 76.7889C42.5798 76.7712 42.7413 76.7536 42.9028 76.7331C43.0556 76.7154 43.2053 76.6949 43.3551 76.6743C43.5108 76.6538 43.6664 76.6303 43.8221 76.6097C43.9778 76.5862 44.1305 76.5627 44.2832 76.5363C44.433 76.5128 44.5828 76.4864 44.7325 76.4629C44.8911 76.4364 45.0468 76.4071 45.2054 76.3777C45.3493 76.3513 45.4903 76.3248 45.6342 76.2955C45.7957 76.2631 45.9573 76.2308 46.1159 76.1956C46.251 76.1662 46.386 76.1369 46.5211 76.1075C46.6856 76.0693 46.853 76.0341 47.0175 75.9929C47.1467 75.9636 47.273 75.9313 47.3993 75.9019C47.5696 75.8579 47.74 75.8167 47.9103 75.7727C48.0278 75.7433 48.1453 75.7081 48.2628 75.6787C48.439 75.6288 48.6181 75.5818 48.7943 75.5318C48.8971 75.5025 48.9999 75.4702 49.1057 75.4379C49.2936 75.3821 49.4816 75.3263 49.6695 75.2675C49.7488 75.244 49.8281 75.2147 49.9045 75.1912C50.113 75.1236 50.3245 75.0561 50.533 74.9826C50.5506 74.9768 50.5712 74.968 50.5888 74.9621C51.1233 74.7771 51.6549 74.5832 52.1777 74.3776C53.4406 73.8784 54.6712 73.3145 55.8636 72.6889C52.7563 70.2982 50.1894 67.2526 48.3685 63.7576Z" fill="#078577"/>
<path d="M96.9512 44.8673C96.9512 44.8702 96.9512 44.8702 96.9512 44.8702C96.9542 44.8702 96.96 44.8702 96.963 44.8673C94.3138 34.9198 85.7439 27.3308 75.4763 25.9798C76.7921 29.7861 77.5351 33.8567 77.6115 38.0859C81.6263 39.7188 84.76 43.1257 85.9876 47.4283C86.4987 50.0128 88.7777 51.96 91.5091 51.96C94.1817 51.96 96.4196 50.095 96.9953 47.5986C97.0893 47.1904 97.1392 46.7675 97.1392 46.3328C97.1451 45.8276 97.0775 45.3342 96.9512 44.8673Z" fill="#078577"/>
<path d="M94.6106 58.621C93.6766 56.8059 91.7852 55.5636 89.6031 55.5636C87.4121 55.5636 85.5149 56.8147 84.5839 58.6445C82.0229 63.0058 77.3179 65.7519 72.1988 65.7519C70.607 65.7519 69.0739 65.4875 67.6406 65.0059C67.4321 64.9354 67.2265 64.862 67.021 64.7827C66.8183 64.7034 66.6186 64.6241 66.4218 64.536C62.8476 62.9588 60.034 59.969 58.6947 56.2743C58.6125 56.0511 58.5391 55.825 58.4686 55.5959C58.3952 55.358 58.3305 55.1143 58.2689 54.8734C57.9899 53.7574 57.8401 52.5944 57.8401 51.3932C57.8401 46.5678 60.2366 42.2916 63.896 39.6865C63.899 39.6307 63.9019 39.5749 63.9019 39.5191C63.9078 39.2841 63.9107 39.0492 63.9107 38.8142C63.9107 34.9845 63.0678 31.3485 61.5612 28.0797C52.7269 32.1268 46.574 41.0551 46.574 51.3932C46.574 55.2405 47.4286 58.8912 48.9529 62.1688C49.0381 62.3538 49.1262 62.5388 49.2172 62.7209C49.3083 62.903 49.3993 63.0851 49.4962 63.2672C51.3171 66.7328 53.9075 69.7344 57.0383 72.0399C57.2204 72.172 57.4025 72.3042 57.5846 72.4334C57.7696 72.5626 57.9576 72.6889 58.1455 72.8123C62.1838 75.4702 67.0121 77.0209 72.1958 77.0209C81.4883 77.0209 89.9115 71.8959 94.405 64.1336C94.4579 64.0484 94.5078 63.9603 94.5548 63.8722C94.5783 63.8282 94.6047 63.7871 94.6282 63.743C94.6253 63.743 94.6223 63.7401 94.6223 63.7401C95.01 62.9765 95.2303 62.1101 95.2303 61.1937C95.2332 60.2686 95.0071 59.3934 94.6106 58.621Z" fill="#078577"/>
</svg>
