<svg width="30" height="30" viewBox="0 0 30 30" fill="none" xmlns="http://www.w3.org/2000/svg">
<path d="M15.0218 28.9999C22.7539 28.9999 29.022 22.7318 29.022 14.9997C29.022 7.26762 22.7539 0.999512 15.0218 0.999512C7.28971 0.999512 1.02161 7.26762 1.02161 14.9997C1.02161 22.7318 7.28971 28.9999 15.0218 28.9999Z" fill="white"/>
<path d="M14.4999 26.9999C21.4036 26.9999 27.0001 21.4033 27.0001 14.4997C27.0001 7.59603 21.4036 1.99951 14.4999 1.99951C7.59628 1.99951 1.99976 7.59603 1.99976 14.4997C1.99976 21.4033 7.59628 26.9999 14.4999 26.9999Z" stroke="#BFBFBF" stroke-width="3"/>
<path d="M15.8765 14.7026L28.2555 2.32365C28.3275 2.25158 28.3846 2.16604 28.4236 2.07189C28.4625 1.97775 28.4825 1.87686 28.4825 1.77498C28.4825 1.6731 28.4624 1.57223 28.4233 1.47812C28.3843 1.38401 28.3271 1.29851 28.255 1.22651C28.183 1.1545 28.0974 1.09739 28.0033 1.05844C27.9091 1.01949 27.8083 0.999468 27.7064 0.999512C27.6045 0.999555 27.5036 1.01966 27.4095 1.05869C27.3154 1.09772 27.2299 1.1549 27.1579 1.22697L14.2282 14.1585C14.1559 14.2303 14.0985 14.3158 14.0593 14.4099C14.0202 14.504 14 14.6049 14 14.7068C14 14.8088 14.0202 14.9097 14.0593 15.0038C14.0985 15.0979 14.1559 15.1833 14.2282 15.2552L27.1588 28.1792C27.3036 28.3246 27.4997 28.407 27.7048 28.4088C27.8066 28.4092 27.9074 28.3891 28.0012 28.3497C28.095 28.3102 28.1799 28.2522 28.2508 28.1792C28.3232 28.1074 28.3806 28.022 28.4197 27.9279C28.4589 27.8337 28.4791 27.7328 28.4791 27.6309C28.4791 27.529 28.4589 27.428 28.4197 27.3339C28.3806 27.2398 28.3232 27.1544 28.2508 27.0825L15.8765 14.7026Z" fill="black"/>
<path d="M13.6058 14.7026L1.22679 2.32365C1.15478 2.25158 1.09768 2.16604 1.05873 2.07189C1.01978 1.97775 0.99976 1.87686 0.999803 1.77498C0.999846 1.6731 1.01995 1.57223 1.05898 1.47812C1.09801 1.38401 1.15519 1.29851 1.22726 1.22651C1.29933 1.1545 1.38487 1.09739 1.47902 1.05844C1.57316 1.01949 1.67405 0.999468 1.77593 0.999512C1.87781 0.999555 1.97868 1.01966 2.07279 1.05869C2.1669 1.09772 2.2524 1.1549 2.32441 1.22697L15.2541 14.1585C15.3264 14.2303 15.3838 14.3158 15.423 14.4099C15.4621 14.504 15.4823 14.6049 15.4823 14.7068C15.4823 14.8088 15.4621 14.9097 15.423 15.0038C15.3838 15.0979 15.3264 15.1833 15.2541 15.2552L2.32347 28.1792C2.17872 28.3246 1.98257 28.407 1.77747 28.4088C1.67569 28.4092 1.57488 28.3891 1.48107 28.3497C1.38725 28.3102 1.30236 28.2522 1.23146 28.1792C1.15913 28.1074 1.10173 28.022 1.06256 27.9279C1.02339 27.8337 1.00322 27.7328 1.00322 27.6309C1.00322 27.529 1.02339 27.428 1.06256 27.3339C1.10173 27.2398 1.15913 27.1544 1.23146 27.0825L13.6058 14.7026Z" fill="black"/>
</svg>
