<svg xmlns="http://www.w3.org/2000/svg" width="29.439" height="29.439" viewBox="0 0 29.439 29.439">
  <path id="linkedin" d="M9.2,24.321H5.176V11.327H9.2ZM9.6,7.187A2.357,2.357,0,1,0,7.246,9.545,2.358,2.358,0,0,0,9.6,7.187Zm14.662,9.985c0-3.488-.737-6.075-4.812-6.075a4.177,4.177,0,0,0-3.809,2h0V11.327H11.73V24.321h3.91V17.87c0-1.69.43-3.327,2.525-3.327,2.066,0,2.133,1.932,2.133,3.434v6.345h3.967Zm5.175,8.816V3.45A3.454,3.454,0,0,0,25.989,0H3.45A3.454,3.454,0,0,0,0,3.45V25.989a3.454,3.454,0,0,0,3.45,3.45H25.989A3.454,3.454,0,0,0,29.439,25.989ZM25.989,2.3a1.151,1.151,0,0,1,1.15,1.15V25.989a1.151,1.151,0,0,1-1.15,1.15H3.45a1.151,1.151,0,0,1-1.15-1.15V3.45A1.151,1.151,0,0,1,3.45,2.3Zm0,0" transform="translate(0)" fill="#fff"/>
</svg>
