<svg id="behance" xmlns="http://www.w3.org/2000/svg" width="29.439" height="29.439" viewBox="0 0 29.439 29.439">
  <path id="Path_9" data-name="Path 9" d="M25.126,0H4.312A4.317,4.317,0,0,0,0,4.312V25.126a4.317,4.317,0,0,0,4.312,4.312H25.126a4.317,4.317,0,0,0,4.312-4.312V4.312A4.317,4.317,0,0,0,25.126,0Zm2.587,25.126a2.59,2.59,0,0,1-2.587,2.587H4.312a2.59,2.59,0,0,1-2.587-2.587V4.312A2.59,2.59,0,0,1,4.312,1.725H25.126a2.59,2.59,0,0,1,2.587,2.587Zm0,0" fill="#fff"/>
  <path id="Path_10" data-name="Path 10" d="M99.625,154.45a3.454,3.454,0,0,0-3.45-3.45H91v12.074h5.175a3.448,3.448,0,0,0,2.278-6.037A3.441,3.441,0,0,0,99.625,154.45ZM97.9,159.625a1.727,1.727,0,0,1-1.725,1.725h-3.45V157.9h3.45A1.727,1.727,0,0,1,97.9,159.625Zm-5.175-3.45v-3.45h3.45a1.725,1.725,0,1,1,0,3.45Zm0,0" transform="translate(-85.768 -142.318)" fill="#fff"/>
  <path id="Path_11" data-name="Path 11" d="M275.312,211a4.312,4.312,0,1,0,3.735,6.469l-1.493-.864a2.588,2.588,0,0,1-4.681-.431h6.752v-.862A4.317,4.317,0,0,0,275.312,211Zm-2.44,3.45a2.588,2.588,0,0,1,4.879,0Zm0,0" transform="translate(-255.418 -198.868)" fill="#fff"/>
  <path id="Path_12" data-name="Path 12" d="M286,151h6.9v1.725H286Zm0,0" transform="translate(-269.556 -142.318)" fill="#fff"/>
</svg>
