<svg id="instagram-logo" xmlns="http://www.w3.org/2000/svg" width="29.439" height="29.439" viewBox="0 0 29.439 29.439">
  <path id="Path_6" data-name="Path 6" d="M21.315,0H8.124A8.133,8.133,0,0,0,0,8.124V21.315a8.133,8.133,0,0,0,8.124,8.124H21.315a8.133,8.133,0,0,0,8.124-8.124V8.124A8.133,8.133,0,0,0,21.315,0Zm5.512,21.315a5.518,5.518,0,0,1-5.512,5.512H8.124a5.518,5.518,0,0,1-5.512-5.512V8.124A5.518,5.518,0,0,1,8.124,2.612H21.315a5.519,5.519,0,0,1,5.512,5.512V21.315Z" fill="#fff"/>
  <path id="Path_7" data-name="Path 7" d="M48.554,40.97a7.585,7.585,0,1,0,7.586,7.586A7.594,7.594,0,0,0,48.554,40.97Zm0,12.559a4.974,4.974,0,1,1,4.974-4.973A4.979,4.979,0,0,1,48.554,53.529Z" transform="translate(-33.834 -33.836)" fill="#fff"/>
  <path id="Path_8" data-name="Path 8" d="M120.836,28.251a1.914,1.914,0,1,0,1.355.561A1.923,1.923,0,0,0,120.836,28.251Z" transform="translate(-98.213 -23.332)" fill="#fff"/>
</svg>
