<svg xmlns="http://www.w3.org/2000/svg" width="231.884" height="199.365" viewBox="0 0 231.884 199.365">
  <path id="origami-bird" d="M.541,98.459c-.007-.012-.016-.022-.024-.034s-.026-.051-.041-.076c-.035-.062-.069-.124-.1-.188-.021-.043-.041-.086-.06-.13-.027-.061-.053-.122-.077-.184S.2,97.747.187,97.7s-.037-.114-.053-.172S.1,97.41.091,97.352s-.023-.105-.032-.158S.038,97.064.03,97c-.006-.049-.012-.1-.015-.147-.006-.07-.009-.14-.01-.211,0-.03,0-.059,0-.09s0-.036,0-.054c0-.066,0-.133.01-.2s.007-.107.013-.161.015-.109.024-.163.02-.125.032-.186c.01-.044.022-.088.033-.132.017-.068.034-.136.054-.2.013-.041.028-.08.042-.12.024-.066.046-.132.074-.2.019-.045.04-.088.061-.131s.052-.114.082-.169.059-.1.09-.155.051-.088.079-.13.078-.11.118-.164c.026-.035.051-.071.079-.106.042-.052.088-.1.133-.152.031-.034.061-.069.093-.1s.087-.083.132-.124.082-.075.124-.111.08-.063.12-.093.106-.08.162-.117c.014-.009.027-.021.041-.03L30.642,74.7c.02-.013.04-.023.06-.035.04-.025.08-.05.121-.074l.076-.041c.041-.022.082-.041.124-.061s.066-.033.1-.048l.071-.029c.055-.023.111-.043.167-.063.02-.007.039-.017.06-.023l.019-.005.06-.017c.065-.02.13-.036.2-.052.025-.006.049-.014.074-.019l.049-.008c.066-.013.132-.023.2-.032.048-.006.1-.012.143-.017s.117-.008.175-.01.112,0,.167,0,.1,0,.152.007l.06,0,.039,0,.082.011c.047.006.093.013.14.021l.046.007c.021,0,.042.005.062.009s.05.013.075.018c.047.01.093.023.14.035s.116.032.172.05.1.035.148.054.073.025.108.041c.015.006.029.015.044.021.053.023.1.049.157.075.035.018.072.034.107.053l.011.006,51.989,28.8,30.9-39.229,0-.005.029-.036c.024-.03.05-.057.075-.085.048-.056.1-.112.148-.164.03-.031.063-.058.094-.088.049-.047.1-.094.15-.138s.1-.078.153-.117l.012-.009c.034-.025.067-.052.1-.076.052-.036.108-.067.162-.1s.082-.052.124-.075.1-.051.157-.076.1-.049.146-.069.1-.035.145-.053.115-.043.173-.061l.022-.008c.052-.016.1-.025.155-.038s.093-.025.141-.034l.059-.012L220.622,44.055c.034-.006.067-.008.1-.013.061-.009.122-.018.183-.025s.112-.008.167-.011.106,0,.159,0,.121,0,.182.006l.147.011c.061.006.121.015.181.025l.149.027c.057.012.113.025.17.041s.1.029.156.045.1.034.154.054.107.041.16.065.1.044.145.068.1.052.154.08.1.057.145.087.092.058.137.089.1.075.154.115c.026.021.054.039.08.06s.022.021.034.032c.051.043.1.09.148.136s.071.066.1.1.084.093.125.141.069.078.1.119.07.1.1.144.064.089.094.135.059.1.087.149.057.1.083.147.048.1.071.154.049.106.07.16.036.1.054.153.041.117.058.176.025.1.038.15.031.128.043.192c0,.016.008.033.011.049.006.036.008.071.013.107.009.062.017.124.023.187s.008.116.01.174,0,.111,0,.167,0,.124-.006.186-.006.1-.011.156-.014.123-.023.185-.017.106-.027.158-.024.116-.039.173-.028.11-.044.164-.033.106-.051.158-.04.112-.062.167-.042.1-.065.15-.05.107-.077.16-.055.1-.083.151-.056.1-.086.142-.072.107-.11.158c-.02.028-.037.057-.059.084L202.163,77.934h26.318c.031,0,.06,0,.091,0,.063,0,.125,0,.188.01s.109.011.163.018.106.016.159.025.119.024.177.038.094.024.141.038.119.036.178.058.091.033.137.052.111.046.165.072.1.047.143.072.1.052.144.081.1.061.149.094.084.057.124.087.1.074.147.114.077.065.114.1.089.082.132.125.077.079.115.12.074.082.109.125.081.1.119.154c.019.025.039.047.057.073s.019.031.029.046c.039.058.075.116.111.176.024.041.049.081.071.122.031.058.06.117.089.177s.044.091.064.138.044.113.065.17.039.1.056.158.03.106.044.16.032.119.044.179.018.1.026.15c.011.066.022.131.029.2.005.048.008.1.011.144.005.069.009.139.01.208,0,.018,0,.036,0,.055s0,.063,0,.094c0,.065,0,.13-.01.2s-.011.113-.018.17-.015.111-.025.165-.023.123-.037.184-.023.1-.036.147-.035.123-.055.184-.033.1-.051.144-.044.114-.068.169-.046.1-.07.151-.049.1-.076.147-.06.106-.092.157-.054.085-.082.127-.073.1-.111.154-.061.079-.093.117-.079.093-.122.139-.076.08-.115.118-.079.077-.121.114-.1.083-.148.123c-.024.019-.045.04-.07.059l-78.189,59.061,14.2,95.859c0,.011,0,.023,0,.034l0,.011c0,.015,0,.029,0,.043.014.1.025.2.03.3,0,.04,0,.078,0,.117,0,.075,0,.15,0,.224,0,.058-.009.115-.014.173s-.008.109-.015.164-.022.134-.035.2c-.009.044-.015.089-.026.133-.015.068-.035.134-.054.2-.012.043-.024.086-.038.128-.02.061-.044.121-.068.181s-.035.094-.056.14-.048.1-.073.151-.052.106-.08.157-.049.081-.074.122c-.034.057-.069.113-.107.168-.024.034-.05.067-.075.1-.042.057-.084.113-.13.167-.027.032-.057.062-.085.094-.046.051-.092.1-.142.15s-.076.069-.115.1-.087.079-.133.115-.115.086-.174.128c-.032.023-.063.047-.1.068-.082.054-.167.1-.255.149l-.035.021,0,0a3.364,3.364,0,0,1-.355.158c-.03.011-.061.019-.092.03-.084.029-.168.056-.255.078-.057.015-.114.025-.172.037s-.084.02-.128.027c-.015,0-.029,0-.043,0a3.258,3.258,0,0,1-.472.039h-.007a3.219,3.219,0,0,1-.417-.03l-.081-.011a3.285,3.285,0,0,1-.809-.235l-.074-.033a3.322,3.322,0,0,1-.362-.194c-.021-.013-.041-.028-.062-.042-.1-.064-.192-.133-.284-.207-.027-.022-.054-.043-.081-.066a3.437,3.437,0,0,1-.289-.28c-.023-.025-.044-.051-.067-.076a3.558,3.558,0,0,1-.258-.333l-.008-.01a3.57,3.57,0,0,1-.231-.4c-.005-.011-.013-.021-.019-.033l-24.859-51.639L52.87,152.581c-.022-.01-.042-.023-.064-.033-.066-.032-.131-.065-.195-.1l-.019-.009-.031-.016c-.024-.014-.045-.03-.069-.044-.051-.032-.1-.065-.152-.1-.033-.023-.066-.044-.1-.067l-.036-.029c-.037-.028-.073-.058-.109-.088-.009-.007-.019-.012-.027-.019l-.025-.024c-.032-.027-.062-.055-.093-.084s-.059-.057-.088-.086l-.005-.005c-.013-.013-.026-.024-.039-.037l-.028-.03-.067-.074c-.028-.032-.055-.065-.082-.1s-.054-.063-.079-.1l-.042-.057-.034-.045c-.012-.017-.022-.035-.034-.052l-.01-.016c-.026-.039-.054-.077-.078-.116l-.023-.038c-.026-.044-.05-.089-.075-.134s-.047-.084-.069-.127l0-.006-.01-.02c-.024-.05-.046-.1-.069-.155s-.038-.084-.054-.128l-.009-.021c-.021-.056-.038-.113-.056-.17l-.008-.024c0-.01-.009-.02-.012-.03l-.014-.045v0L35.682,100.087H3.382a3.326,3.326,0,0,1-.371-.024c-.034,0-.069-.011-.1-.016-.1-.015-.2-.033-.292-.057-.035-.008-.07-.018-.105-.028q-.147-.041-.288-.1c-.029-.011-.059-.022-.089-.034a3.375,3.375,0,0,1-.356-.172l-.008-.005a3.372,3.372,0,0,1-.314-.2c-.038-.028-.075-.057-.112-.087q-.1-.08-.2-.167c-.036-.033-.073-.066-.108-.1A3.4,3.4,0,0,1,.8,98.831L.776,98.8A3.865,3.865,0,0,1,.541,98.459ZM38.2,84.894l17.375,57.148,26.063-33.086ZM212.909,52.667,124.284,69.1l25.321,65.748ZM61.9,145.18l81.834-6.538-25.18-65.38Zm73.5,36.958,8.771-36.44L68.15,151.771Zm5.935,4.494,15.14,31.45-8.651-58.407Zm25.756-63.159L218.015,85h-21.3ZM30.523,83.115l-15.253,9.9H33.533Z" transform="translate(0 -44.002)" opacity="0.06"/>
</svg>
