<svg xmlns="http://www.w3.org/2000/svg" width="68.286" height="68.612" viewBox="0 0 68.286 68.612">
  <path id="iconmonstr-whatsapp-1" d="M.057,68.612,4.88,50.993a34,34,0,1,1,13.2,12.89L.057,68.612Zm18.86-10.884A28.292,28.292,0,1,0,6.083,34c0,6.361,1.861,11.124,4.992,16.107L8.219,60.533l10.7-2.8ZM51.47,42.108c-.212-.354-.778-.566-1.63-.992s-5.026-2.481-5.806-2.764-1.344-.426-1.913.426-2.2,2.764-2.69,3.331-.992.638-1.841.212A23.186,23.186,0,0,1,30.758,38.1a25.573,25.573,0,0,1-4.726-5.886c-.495-.849-.051-1.309.372-1.732.383-.38.849-.992,1.275-1.489a5.573,5.573,0,0,0,.858-1.415,1.562,1.562,0,0,0-.071-1.489c-.214-.423-1.913-4.606-2.619-6.307-.692-1.655-1.392-1.432-1.913-1.458L22.3,18.3A3.112,3.112,0,0,0,20.04,19.36a9.533,9.533,0,0,0-2.973,7.087c0,4.182,3.045,8.222,3.468,8.788s5.989,9.148,14.511,12.828a49.156,49.156,0,0,0,4.843,1.79,11.677,11.677,0,0,0,5.352.337c1.632-.243,5.026-2.056,5.735-4.04a7.078,7.078,0,0,0,.495-4.042Z" transform="translate(-0.057)" fill="#fff"/>
</svg>
