<svg width="83" height="57" viewBox="0 0 83 57" fill="none" xmlns="http://www.w3.org/2000/svg">
<g clip-path="url(#clip0)">
<path d="M42.5002 39.2999C42.5002 41.4999 39.2002 41.4999 39.2002 39.2999C39.2002 37.0999 42.5002 37.0999 42.5002 39.2999Z" fill="#F9BC20"/>
<path d="M80.5 41.8C79.9 41.8 79.4 41.3 79.4 40.7C79.4 19.4 62.1 2.1 40.8 2.1C19.5 2.1 2.2 19.4 2.2 40.8C2.2 41.4 1.7 41.9 1.1 41.9C0.5 41.9 0 41.4 0 40.8C0 18.3 18.3 0 40.8 0C63.3 0 81.6 18.3 81.6 40.8C81.5 41.3 81.1 41.8 80.5 41.8Z" fill="#0C0C0C"/>
<path d="M40.8002 10.9999C40.2002 10.9999 39.7002 10.4999 39.7002 9.8999V5.4999C39.7002 4.8999 40.2002 4.3999 40.8002 4.3999C41.4002 4.3999 41.9002 4.8999 41.9002 5.4999V9.9999C41.8002 10.4999 41.4002 10.9999 40.8002 10.9999Z" fill="#0C0C0C"/>
<path d="M33.0999 12.0001C32.5999 12.0001 32.1999 11.7001 32.0999 11.3001L30.9999 7.00006C30.7999 6.40006 31.1999 5.80006 31.6999 5.70006C32.2999 5.50006 32.8999 5.90006 32.9999 6.40006L34.1999 10.7001C34.3999 11.3001 33.9999 11.9001 33.4999 12.0001H33.0999Z" fill="#0C0C0C"/>
<path d="M26.0998 14.8999C25.7998 14.8999 25.3998 14.6999 25.1998 14.3999L22.9998 10.4999C22.6998 9.99994 22.8998 9.29994 23.3998 9.09994C23.8998 8.79994 24.5998 8.99994 24.7998 9.49994L26.9998 13.3999C27.2998 13.8999 27.0998 14.5999 26.5998 14.7999C26.3998 14.8999 26.1998 14.8999 26.0998 14.8999Z" fill="#0C0C0C"/>
<path d="M19.9002 19.6999C19.7002 19.6999 19.4002 19.5999 19.2002 19.3999L16.0002 16.1999C15.6002 15.7999 15.6002 15.0999 16.0002 14.6999C16.4002 14.2999 17.1002 14.2999 17.5002 14.6999L20.7002 17.8999C21.1002 18.2999 21.1002 18.9999 20.7002 19.3999C20.4002 19.5999 20.2002 19.6999 19.9002 19.6999Z" fill="#0C0C0C"/>
<path d="M15.2002 25.7999C15.0002 25.7999 14.9002 25.6999 14.7002 25.5999L10.8002 23.3999C10.3002 23.0999 10.1002 22.4999 10.4002 21.9999C10.7002 21.4999 11.3002 21.2999 11.8002 21.5999L15.7002 23.7999C16.2002 24.0999 16.4002 24.6999 16.1002 25.1999C15.9002 25.5999 15.6002 25.7999 15.2002 25.7999Z" fill="#0C0C0C"/>
<path d="M12.3002 33H12.0002L7.70018 31.8C7.10018 31.6 6.80018 31.1 7.00018 30.5C7.20018 29.9 7.70018 29.6 8.30018 29.8L12.6002 31C13.2002 31.2 13.5002 31.7 13.3002 32.3C13.1002 32.6 12.7002 33 12.3002 33Z" fill="#0C0C0C"/>
<path d="M11.2001 40.5999H6.7001C6.1001 40.5999 5.6001 40.0999 5.6001 39.4999C5.6001 38.8999 6.1001 38.3999 6.7001 38.3999H11.2001C11.8001 38.3999 12.3001 38.8999 12.3001 39.4999C12.3001 40.0999 11.8001 40.5999 11.2001 40.5999Z" fill="#0C0C0C"/>
<path d="M74.8998 40.5999H70.3998C69.7998 40.5999 69.2998 40.0999 69.2998 39.4999C69.2998 38.8999 69.7998 38.3999 70.3998 38.3999H74.8998C75.4998 38.3999 75.9998 38.8999 75.9998 39.4999C75.9998 40.0999 75.4998 40.5999 74.8998 40.5999Z" fill="#0C0C0C"/>
<path d="M69.3998 33.0002C68.8998 33.0002 68.4998 32.7002 68.3998 32.3002C68.1998 31.7002 68.5998 31.1002 69.0998 31.0002L73.3998 29.8002C73.9998 29.6002 74.5998 30.0002 74.6998 30.5002C74.8998 31.1002 74.4998 31.7002 73.9998 31.8002L69.5998 32.9002C69.5998 33.0002 69.4998 33.0002 69.3998 33.0002Z" fill="#0C0C0C"/>
<path d="M66.3998 25.8C66.0998 25.8 65.6998 25.6 65.4998 25.3C65.1998 24.8 65.3998 24.1 65.8998 23.9L69.7998 21.7C70.2998 21.4 70.9998 21.6 71.1998 22.1C71.4998 22.6 71.2998 23.3 70.7998 23.5L66.9998 25.7C66.7998 25.7 66.6998 25.8 66.3998 25.8Z" fill="#0C0C0C"/>
<path d="M61.7998 19.6999C61.5998 19.6999 61.2998 19.5999 61.0998 19.3999C60.6998 18.9999 60.6998 18.2999 61.0998 17.8999L64.2998 14.6999C64.6998 14.2999 65.3998 14.2999 65.7998 14.6999C66.1998 15.0999 66.1998 15.7999 65.7998 16.1999L62.5998 19.3999C62.2998 19.5999 61.9998 19.6999 61.7998 19.6999Z" fill="#0C0C0C"/>
<path d="M55.6 14.8998C55.4 14.8998 55.3 14.7998 55.1 14.6998C54.6 14.3998 54.4 13.7998 54.7 13.2998L56.9 9.39984C57.2 8.89984 57.8 8.69984 58.3 8.99984C58.8 9.29984 59 9.89984 58.7 10.3998L56.5 14.2998C56.4 14.7998 56 14.8998 55.6 14.8998Z" fill="#0C0C0C"/>
<path d="M48.4998 11.9999H48.2998C47.6998 11.7999 47.3998 11.2999 47.5998 10.6999L48.7998 6.39989C48.9998 5.79989 49.4998 5.49989 50.0998 5.69989C50.6998 5.89989 50.9998 6.39989 50.7998 6.99989L49.5998 11.2999C49.3998 11.6999 48.9998 11.9999 48.4998 11.9999Z" fill="#0C0C0C"/>
<path d="M50.7001 22.8998L38.0001 36.4998C37.4001 37.1998 36.7001 38.5998 36.7001 39.5998C36.7001 41.8998 38.5001 43.7998 40.9001 43.7998C41.9001 43.7998 42.7001 43.4998 43.5001 42.6998C44.2001 41.9998 44.7001 41.1998 45.1001 40.0998L50.7001 22.8998ZM40.8001 45.7998C37.3001 45.7998 34.6001 42.9998 34.6001 39.5998C34.6001 37.9998 35.5001 36.2998 36.4001 35.1998L52.2001 18.3998C52.5001 17.9998 53.2001 17.8998 53.6001 18.1998C54.1001 18.4998 54.3001 19.0998 54.1001 19.5998L47.0001 40.7998C46.5001 42.1998 45.8001 43.3998 44.8001 44.2998C43.7001 45.1998 42.3001 45.7998 40.8001 45.7998Z" fill="#F9BC20"/>
<path d="M81.8 56.9002H1.1C0.5 56.9002 0 56.4002 0 55.8002C0 55.2002 0.5 54.7002 1.1 54.7002H82C82.6 54.7002 83.1 55.2002 83.1 55.8002C82.9 56.4002 82.4 56.9002 81.8 56.9002Z" fill="#0C0C0C"/>
</g>
<defs>
<clipPath id="clip0">
<rect width="83" height="56.9" fill="white"/>
</clipPath>
</defs>
</svg>
