<svg width="56" height="73" viewBox="0 0 56 73" fill="none" xmlns="http://www.w3.org/2000/svg">
<path fill-rule="evenodd" clip-rule="evenodd" d="M44.8 23.2138C43.6 23.2138 42.6 22.226 42.6 21.0406C42.6 19.8552 43.6 18.8674 44.8 18.8674C46 18.8674 47 19.8552 47 21.0406C47 22.226 46 23.2138 44.8 23.2138ZM2.2 71.9134C2.2 72.5061 1.7 73 1.1 73C0.5 73 0 72.5061 0 71.9134V63.023C0 57.4912 4.5 53.046 10.1 53.046H45.9C51.5 53.046 56 57.4912 56 63.023V71.9134C56 72.5061 55.5 73 54.9 73C54.3 73 53.8 72.5061 53.8 71.9134V63.023C53.8 58.7754 50.3 55.318 46 55.318H10.1C5.8 55.318 2.3 58.7754 2.3 63.023L2.2 71.9134ZM46.1 12.1502C42.2 6.02571 35.5 2.17321 28 2.17321C20.5 2.17321 13.7 6.02571 9.9 12.1502H46.1ZM9.9 34.2774C13.7 40.4019 20.5 44.2544 28 44.2544C35.5 44.2544 42.3 40.4019 46.1 34.2774H9.9ZM4.5 17.682V28.7456C4.5 30.5237 6 32.1042 7.9 32.1042H48.2C50.1 32.1042 51.6 30.6225 51.6 28.7456V17.682C51.6 15.9039 50.1 14.3234 48.2 14.3234H7.8C6 14.4222 4.5 15.9039 4.5 17.682ZM48.7 12.1502C51.5 12.4465 53.8 14.8173 53.8 17.682V28.7456C53.8 31.6103 51.6 33.9811 48.7 34.2774C44.6 41.6861 36.7 46.4276 28 46.4276C19.3 46.4276 11.4 41.6861 7.3 34.2774C4.5 33.9811 2.2 31.6103 2.2 28.7456V17.682C2.2 14.8173 4.4 12.4465 7.3 12.1502C11.4 4.74154 19.2 0 28 0C36.8 0 44.6 4.74154 48.7 12.1502Z" fill="#000"/>
<path fill-rule="evenodd" clip-rule="evenodd" d="M44.8002 23.2137C43.6002 23.2137 42.6002 22.2259 42.6002 21.0405C42.6002 19.8552 43.6002 18.8673 44.8002 18.8673C46.0002 18.8673 47.0002 19.8552 47.0002 21.0405C47.0002 22.2259 46.0002 23.2137 44.8002 23.2137ZM9.9002 12.1501H46.1002H9.9002ZM46.1002 34.2773H9.9002H46.1002ZM4.5002 17.6819V28.7455C4.5002 30.5236 6.0002 32.1041 7.9002 32.1041H48.2002C50.1002 32.1041 51.6002 30.6224 51.6002 28.7455V17.6819C51.6002 15.9039 50.1002 14.3234 48.2002 14.3234H7.8002C6.0002 14.4221 4.5002 15.9039 4.5002 17.6819ZM48.7002 12.1501C51.5002 12.4465 53.8002 14.8173 53.8002 17.6819V28.7455C53.8002 31.6102 51.6002 33.981 48.7002 34.2773H7.3002C4.5002 33.981 2.2002 31.6102 2.2002 28.7455V17.6819C2.2002 14.8173 4.4002 12.4465 7.3002 12.1501" fill="#F9BC20"/>
</svg>
