<svg width="67" height="80" viewBox="0 0 67 80" fill="none" xmlns="http://www.w3.org/2000/svg">
<g clip-path="url(#clip0)">
<path d="M33.1999 48.2998C28.5999 48.2998 24.8999 44.5998 24.8999 40.0998C24.8999 35.5998 28.5999 31.8998 33.1999 31.8998C37.7999 31.8998 41.4999 35.5998 41.4999 40.0998C41.4999 44.5998 37.7999 48.2998 33.1999 48.2998ZM43.4999 39.9998C43.4999 34.2998 38.8999 29.7998 33.1999 29.7998C27.4999 29.7998 22.8999 34.3998 22.8999 39.9998C22.8999 45.6998 27.4999 50.1998 33.1999 50.1998C38.8999 50.2998 43.4999 45.6998 43.4999 39.9998Z" fill="#F9BC20"/>
<path d="M20.0002 26.1C16.3002 29.6 14.0002 34.5 14.0002 40C14.0002 45.3 16.2002 50.2 19.7002 53.7C10.8002 49.4 4.2002 42.2 2.3002 40C4.2002 37.8 11.0002 30.5 20.0002 26.1ZM64.2002 40C62.3002 42.2 55.6002 49.5 46.5002 53.9C50.1002 50.4 52.4002 45.5 52.4002 40.1C52.4002 34.6 50.0002 29.6 46.3002 26.1C55.4002 30.4 62.3002 37.8 64.2002 40ZM16.0002 40.1C16.0002 30.6 23.7002 22.9 33.2002 22.9H33.3002C42.8002 22.9 50.5002 30.6 50.5002 40.1C50.5002 48.4 44.6002 55.3 36.8002 56.9C35.7002 57.1 34.5002 57.1 33.3002 57.1C32.0002 57.1 30.8002 57 29.6002 56.8C21.8002 55.2 16.0002 48.3 16.0002 40.1ZM9.8002 49.9C14.4002 53.5 21.3002 57.7 29.1002 58.9C30.4002 59.2 31.8002 59.3 33.2002 59.3C34.5002 59.3 35.8002 59.2 37.1002 58.9C45.0002 57.8 52.0002 53.5 56.7002 49.9C62.6002 45.3 66.2002 40.9 66.3002 40.7C66.6002 40.3 66.6002 39.8 66.3002 39.5C66.2002 39.3 62.5002 34.8 56.7002 30.3C51.2002 26.1 42.8002 21 33.3002 21H33.2002C23.8002 21.1 15.4002 26.1 9.9002 30.3C4.0002 34.9 0.400195 39.3 0.300195 39.5C0.00019531 39.9 0.00019531 40.4 0.300195 40.7C0.400195 40.8 4.0002 45.3 9.8002 49.9Z" fill="#0C0C0C"/>
<path d="M53.9002 73.2L48.6002 64C48.3002 63.5 47.7002 63.4 47.2002 63.6C46.7002 63.8 46.6002 64.5 46.8002 65L52.1002 74.2C52.3002 74.5 52.6002 74.7 53.0002 74.7C53.2002 74.7 53.3002 74.7 53.5002 74.6C54.0002 74.3 54.2002 73.7 53.9002 73.2Z" fill="#0C0C0C"/>
<path d="M34.6001 78.9998V68.2998C34.6001 67.6998 34.2001 67.2998 33.6001 67.2998C33.0001 67.2998 32.6001 67.6998 32.6001 68.2998V78.9998C32.6001 79.5998 33.0001 79.9998 33.6001 79.9998C34.2001 79.9998 34.6001 79.5998 34.6001 78.9998Z" fill="#0C0C0C"/>
<path d="M13.9999 74.9001C14.2999 74.9001 14.6999 74.7001 14.8999 74.4001L20.1999 65.2001C20.4999 64.7001 20.2999 64.1001 19.7999 63.8001C19.2999 63.5001 18.6999 63.7001 18.3999 64.2001L13.0999 73.4001C12.7999 73.9001 12.9999 74.5001 13.4999 74.8001C13.6999 74.8001 13.8999 74.9001 13.9999 74.9001Z" fill="#0C0C0C"/>
<path d="M18.1998 15.9998C18.3998 16.2998 18.6998 16.4998 19.0998 16.4998C19.2998 16.4998 19.3998 16.4998 19.5998 16.3998C20.0998 16.0998 20.1998 15.4998 19.9998 14.9998L14.6998 5.7998C14.3998 5.2998 13.7998 5.1998 13.2998 5.3998C12.7998 5.6998 12.6998 6.2998 12.8998 6.7998L18.1998 15.9998Z" fill="#0C0C0C"/>
<path d="M33.2998 12.7C33.8998 12.7 34.2998 12.3 34.2998 11.7V1C34.2998 0.4 33.8998 0 33.2998 0C32.6998 0 32.2998 0.4 32.2998 1V11.7C32.2998 12.2 32.6998 12.7 33.2998 12.7Z" fill="#0C0C0C"/>
<path d="M46.8998 16.3001C47.0998 16.4001 47.1998 16.4001 47.3998 16.4001C47.6998 16.4001 48.0998 16.2001 48.2998 15.9001L53.5998 6.70013C53.8998 6.20013 53.6998 5.60013 53.1998 5.30013C52.6998 5.00013 52.0998 5.20013 51.7998 5.70013L46.4998 14.9001C46.2998 15.4001 46.4998 16.0001 46.8998 16.3001Z" fill="#0C0C0C"/>
</g>
<defs>
<clipPath id="clip0">
<rect width="66.5" height="80" fill="white"/>
</clipPath>
</defs>
</svg>
