<svg width="34" height="40" viewBox="0 0 34 40" fill="none" xmlns="http://www.w3.org/2000/svg">
<path d="M17 0C26.3738 0 34 7.47667 34 16.6667V40H30.6C30.6 38.1617 29.0751 36.6667 27.2 36.6667C25.3249 36.6667 23.8 38.1617 23.8 40H20.4C20.4 38.1617 18.8751 36.6667 17 36.6667C15.1249 36.6667 13.6 38.1617 13.6 40H10.2C10.2 38.1617 8.6751 36.6667 6.8 36.6667C4.9249 36.6667 3.4 38.1617 3.4 40H-9.53674e-07V16.6667C-9.53674e-07 7.47667 7.6262 0 17 0ZM22.95 20C24.3576 20 25.5 18.88 25.5 17.5C25.5 16.12 24.3576 15 22.95 15C21.5424 15 20.4 16.12 20.4 17.5C20.4 18.88 21.5424 20 22.95 20ZM11.05 20C12.4576 20 13.6 18.88 13.6 17.5C13.6 16.12 12.4576 15 11.05 15C9.6424 15 8.5 16.12 8.5 17.5C8.5 18.88 9.6424 20 11.05 20Z" fill="#e40810"/>
</svg>
