<svg width="17" height="17" viewBox="0 0 17 17" fill="none" xmlns="http://www.w3.org/2000/svg">
<path fill-rule="evenodd" clip-rule="evenodd" d="M11.3203 0.481448C10.9905 2.01911 10.1454 3.39776 8.94418 4.39029C8.0927 2.99292 7.21604 1.76801 6.38112 0.798013C6.25528 0.651822 6.12979 0.510699 6.00486 0.375031C6.33522 0.274029 6.67535 0.192049 7.0242 0.130535C8.51647 -0.132597 9.98642 0.0109131 11.3203 0.481448ZM12.7522 1.1415C12.2816 2.96756 11.2121 4.58914 9.7293 5.74146C10.1338 6.47151 10.5274 7.23647 10.9023 8.02684C11.1501 7.95962 11.4031 7.90299 11.6608 7.85756C13.5533 7.52388 15.41 7.8442 16.9987 8.6562C17.008 8.11901 16.9662 7.57309 16.8694 7.02424C16.4158 4.45161 14.8493 2.35476 12.7522 1.1415ZM16.8038 10.3193C15.4008 9.44765 13.6838 9.06985 11.9291 9.37927C11.8006 9.40199 11.6735 9.42802 11.5478 9.45738C12.3627 11.3595 13.0512 13.3683 13.5156 15.3631C15.1813 14.1439 16.359 12.346 16.8038 10.3193ZM12.1176 16.1925C11.6709 14.1015 10.9515 11.9755 10.0886 9.97525C7.58758 11.193 6.00691 13.834 6.19752 16.6827C7.38964 17.0191 8.67416 17.099 9.97576 16.8695C10.7346 16.7356 11.452 16.505 12.1176 16.1925ZM4.63781 16.0708C4.69342 12.8532 6.58075 9.94698 9.44853 8.56797C9.11964 7.88059 8.77645 7.21407 8.42484 6.57555C7.67975 6.96066 6.86459 7.24111 5.99506 7.39447C3.94536 7.75589 1.93783 7.35012 0.267045 6.38348C-0.0265681 7.52272 -0.0870818 8.74157 0.130535 9.97572C0.611863 12.7055 2.34623 14.8996 4.63781 16.0708ZM0.800562 4.90045C2.21301 5.795 3.95052 6.18592 5.72673 5.87273C6.41312 5.7517 7.05812 5.53384 7.65016 5.23569C6.83602 3.8952 6.00034 2.72422 5.21002 1.80606C4.9565 1.51154 4.71055 1.2465 4.47452 1.01264C2.84892 1.88627 1.56804 3.2625 0.800562 4.90045Z" fill="#e40810"/>
</svg>
